# xmcd CD database file
#
# Track frame offsets:
#	150
#	12053
#	22733
#	35243
#	44431
#	58171
#	69271
#	80671
#	92739
#	110957
#
# Disc length: 1637 seconds
#
# Revision: 0
# Processed by: cddbd v1.5.2PL0 Copyright (c) Steve Scherf et al.
# Submitted via: CDex 1.73
#
DISCID=8106630a
DTITLE=Rev. Barry Willie Black - Songs Of My Life In The Key Of Johnny Cash - EP
DYEAR=2015
DGENRE=Country
TTITLE0=I Walk The Line
TTITLE1=There You Go
TTITLE2=Ballad Of The Teenage Queen
TTITLE3=Guess Things Happen That Way
TTITLE4=Don't Take Your Guns To Town
TTITLE5=Ring Of Fire
TTITLE6=Understand Your Man
TTITLE7=Folsom Prison Blues
TTITLE8=Sunday Mornin' Comin' Down
TTITLE9=Flesh And Blood
EXTD=YEAR: 2015
EXTT0=
EXTT1=
EXTT2=
EXTT3=
EXTT4=
EXTT5=
EXTT6=
EXTT7=
EXTT8=
EXTT9=
PLAYORDER=
